<svg id="Content" xmlns="http://www.w3.org/2000/svg" viewBox="0 0 2048 2048"><defs><style>.cls-1{fill:#161032;}.cls-2{fill:#8d5524;}.cls-3{fill:#e0ac69;}.cls-4{fill:#ffc53a;}.cls-5{fill:#2a9d8f;}.cls-6{fill:#e06d06;}</style></defs><rect id="Background" class="cls-1" width="2048" height="2048"/><g id="Hands"><path class="cls-2" d="M1306.41,1158.45c73.54,70.37,136.71,131.52,145.25,142A172.67,172.67,0,0,1,1483,1361.4c.42-.42.83-.85,1.25-1.26,28.93-29.23,72.66-73.4,120.17-94.63,52.35-23.39,108.41-28.78,139.86-29.79l-98.66-397.49c-21.5,7.08-58.28,19-96.5,30.48-123.81,37.22-142,33.92-149.72,32.52-14-2.54-37.43-14.57-81.14-37.39-65.06-34-163.38-85.29-230.21-93.66-30.25-3.79-91.86,14.29-153.29,45-22.17,11.09-42.92,17.18-61.23,22.55-34.06,10-50.8,15.78-59.3,37.73-21.46,55.45-52.32,99.8-94.36,135.6-17.12,14.58-25.21,40.08-19.22,60.64,3.41,11.72,12.74,26.43,37.78,29.93,52.65,7.36,111.19-43.73,134-86.33-10-10.26-24.2-27.52-31-48.64A18.75,18.75,0,0,1,877,955.1c4.82,14.88,15.81,27.65,23,34.85,24.68-7.41,90.57-29.26,125.14-60.63-2.09-18.26-3.62-55.72,14.64-78.55a18.74,18.74,0,1,1,29.27,23.42c-8.79,11-8.38,37.16-6.45,52.63,28.18,26.63,124.23,117.5,213.95,203.15,23.78-8.56,59.63-26.66,64.14-46.88a18.75,18.75,0,0,1,36.59,8.17C1369.86,1124.68,1333.46,1146.54,1306.41,1158.45Z"/><path class="cls-2" d="M868.71,1552.85c-7.84-4.86-18-7.31-29.7-7.31a114.12,114.12,0,0,0-30.56,4.62c-12.75,3.61-22.63,20-23.47,39-.44,9.81,1.18,43,40.3,57.87,33.69,12.84,71.12,12.72,100.07,9.41-16.61-13.15-29.28-32.66-36.14-69.28C886.13,1570.71,879.43,1559.5,868.71,1552.85Z"/><path class="cls-2" d="M782.53,1455.71a105.09,105.09,0,0,0-18.47-1.68c-33,0-59.78,16.86-73.66,47.24-6.7,14.65-2.56,45.28,15.82,69.22,8.45,11,21.9,23,41.33,25.6-.13-2.93-.15-5.81,0-8.63,1.59-35.77,22-65.25,50.75-73.37a165.2,165.2,0,0,1,17.24-3.91C813.53,1490.78,806.57,1460,782.53,1455.71Z"/><path class="cls-2" d="M586.23,1479c15.81,25.7,44,36.78,63.72,41.15-.28-12.56,1.77-24.4,6.35-34.43,10.27-22.46,25.7-40,44.66-51.79a111.51,111.51,0,0,0-10.19-15.22c-14.42-18-31.95-27.55-52.1-28.3-29.8-1.1-45.28,19.78-50.55,28.81C576.69,1438.79,575.94,1462.26,586.23,1479Z"/><path class="cls-2" d="M559.56,1315.4c-19.35-.77-34.83,5.82-46,19.58-9.2,11.35-13.26,25-13.66,30.89-.63,9.55-.89,52.77,41.79,81.74a103.52,103.52,0,0,1,14-47.31c13.15-22.54,33.45-38.06,56.92-44.33C603.51,1338.61,586.6,1316.47,559.56,1315.4Z"/><path class="cls-3" d="M1427.34,1332c-3.29-5-11-14-22.33-26-56.55-56.25-232.46-223.62-360-344.26-42.67,35.17-111.69,57.59-136.22,64.79-26.87,56.23-102.08,122.52-175.51,112.27-34.52-4.81-59.52-25.43-68.59-56.57-4.87-16.7-4.57-35.67.83-53.41a98,98,0,0,1,30.08-46.25A281.85,281.85,0,0,0,761.87,900H637.44c-27.15,0-73.63-13.9-138.15-41.32-27.14-11.54-51.6-23-67.71-30.69L301.67,1235.6c20.52,14.47,69.41,45.47,121.51,53.5,32.91,5.08,56.45,9.26,71,12,14.08-12.85,35.56-24.39,66.89-23.15,30.42,1.2,56.88,17.33,76.55,46.65a161.94,161.94,0,0,1,15.52,29.63c26.21,4.32,49.46,18.71,67.83,42.16a152.36,152.36,0,0,1,14.91,23.25,133.7,133.7,0,0,1,53.24-.84c20.38,3.62,47.19,17.3,59.19,61.88a165.63,165.63,0,0,1,4.85,28.32,87.35,87.35,0,0,1,35.35,12c19.59,12.16,32.59,32.63,37.58,59.21,8.06,43,21.72,49.17,54.72,64l7.24,3.26,39,17.73a57.45,57.45,0,0,0,39-12.85,74.32,74.32,0,0,0,18.56-22.24l.43-.95c-23.42-59.64-103.58-112.36-104.43-112.91a18.74,18.74,0,0,1,20.42-31.44c4.08,2.65,99.62,65.38,122.63,141.39a18.81,18.81,0,0,1,1.77,2.92l.12.26c2.85,6.13,11.53,24.77,51.22,11.88,19.79-6.44,33.3-18,40.14-34.4a63.23,63.23,0,0,0,4.67-20.29c-23.7-34-107.51-113.52-139.15-142.5a18.74,18.74,0,1,1,25.31-27.64c12,10.94,113,103.92,144.4,148.46,22.34,6.05,50.36,9.11,68.49-5.22,17.41-13.76,20.72-40.36,20-62.24-33.33-39.89-146-147.37-147.2-148.5a18.74,18.74,0,1,1,25.86-27.14c4.89,4.66,115.62,110.29,150.54,152.14,34.85,9,58.73,1.63,71-21.89C1455.17,1424.52,1456.57,1376.75,1427.34,1332Z"/></g><g id="Wordmark"><path class="cls-4" d="M798.06,505.47V455.18H769.64v-66H712.57v66H691.36v50.29h21.21V623.1q0,29.74,14.21,44.94t44.39,15.19h26.89V627.7H783q-6.35,0-9.83-4.16t-3.5-12.24V505.47Z"/><path class="cls-4" d="M934.61,455.18V607.8q0,12.9-6.45,19.9t-18.91,6.77q-12.69.22-19.25-6.45t-6.56-19.13V455.18H826.82V610q0,37,15.85,56.2t46.24,19.24q18.15,0,30.5-11.26A62,62,0,0,0,934.61,652v30.19H991v-227Z"/><path class="cls-5" d="M1177.85,486.67A63.67,63.67,0,0,0,1150,460.54q-18.27-9.07-43.84-9.07-30,0-50.07,13.44t-26.89,37.28l44.38,18.15a34.11,34.11,0,0,1,13.23-12.68,38.39,38.39,0,0,1,18.69-4.59q14,0,21.65,6.67t7.65,18.91V546.8h-35.42q-38.7,0-58.38,18.14t-19.68,52.92q0,33.45,15.64,50.5t46.68,17.06a70.53,70.53,0,0,0,27.22-5,46.85,46.85,0,0,0,19.68-14.87,38.68,38.68,0,0,0,4.26-7.08v23.7h52.69V527.77Q1187.47,503.73,1177.85,486.67Zm-43.07,128.56q0,11.81-9,17.71t-26.68,5.91q-12.67,0-19-5.25t-6.34-15.74q0-13.33,6.89-20t20.22-6.67h33.89Z"/><path class="cls-6" d="M614.94,455V607.57q0,12.9-6.45,19.89t-18.91,6.78q-12.69.22-19.24-6.45t-6.56-19.13V568.74h0V545.48h0v-16c0-16.47-2.08-30.57-6.89-42.31s-11.44-20.66-20.55-26.78-20.08-9.18-32.91-9.18a55.84,55.84,0,0,0-33.89,11.26Q455.83,472.6,447,490.33c-.51-1.48-1.06-2.92-1.65-4.33q-7.11-17.06-20.66-25.91t-32.8-8.85a52.26,52.26,0,0,0-32.79,10.93,68.26,68.26,0,0,0-18.15,22V455H283.69v227H341V533q0-13.77,6.78-21.21t19.46-7.43q13.77,0,21,8.2t7.21,23.5V681.91h57.07V535.2q0-14.87,7.1-22.85t20.23-8q13.11,0,20.22,8.2t7.11,23.5v73.68q0,37,15.85,56.2t46.25,19.24q18.13,0,30.5-11.26a62,62,0,0,0,15.19-22.21v30.19h56.41V455Z"/><path class="cls-4" d="M1177.85,486.44A63.67,63.67,0,0,0,1150,460.31q-18.27-9.07-43.84-9.07-30,0-50.07,13.44T1029.18,502l44.38,18.15a34.11,34.11,0,0,1,13.23-12.68,38.39,38.39,0,0,1,18.69-4.59q14,0,21.65,6.66t7.65,18.92v18.15h-35.42q-38.7,0-58.38,18.14t-19.68,52.92q0,33.45,15.64,50.5t46.68,17.06a70.53,70.53,0,0,0,27.22-5,46.85,46.85,0,0,0,19.68-14.87,38.68,38.68,0,0,0,4.26-7.08v23.7h52.69V527.54Q1187.47,503.5,1177.85,486.44Zm-52,146.27q-9,5.91-26.68,5.91-12.67,0-19-5.25t-6.34-15.74q0-13.33,6.89-20t20.22-6.67h33.89v24Q1134.78,626.81,1125.82,632.71Z"/><path class="cls-4" d="M1556.23,503.71,1471,629.43h91.17v52.48h-155V632.27L1495,507.43h-84.84V455h146.06Z"/><path class="cls-4" d="M1752.25,590.51v-40q0-31.49-9.73-53.68T1714.2,463q-18.59-11.58-44.82-11.59-26.89,0-45.92,10.61a70.23,70.23,0,0,0-29.08,30.72q-10.05,20.12-10.05,48.54v58.16q0,26.89,10.49,46.13A70.53,70.53,0,0,0,1624.89,675q19.56,10.17,47.33,10.17,31.27,0,51.06-13.89t26.35-41.43l-47.89-18.15Q1698,623.09,1690.26,629t-19.57,5.9q-15.53,0-24-8.86t-8.52-25.47V590.51Zm-105.83-78.38q8.31-9.51,23-9.51,12.9,0,21.1,8.42t8.2,22.84v16.18h-60.56V538.91Q1638.12,521.65,1646.42,512.13Z"/><path class="cls-4" d="M1323.7,626.59H1298q-7.65,0-11.91-4.37T1281.82,610V364H1225V621.78q0,28.65,14.87,44.38t41.55,15.75h99.37V455H1323.7Z"/><rect class="cls-4" x="1323.7" y="364" width="57.07" height="56.63"/></g><polygon class="cls-4" points="1705.88 364 1672.73 364 1672.73 372.64 1684.88 372.64 1684.88 407.76 1693.73 407.76 1693.73 372.64 1705.88 372.64 1705.88 364"/><polygon class="cls-4" points="1743.82 364 1731.6 388.72 1719.37 364 1710.94 364 1710.94 407.76 1719.3 407.76 1719.3 379.74 1730.19 401.86 1733.07 401.86 1743.96 379.26 1743.96 407.76 1752.25 407.76 1752.25 364 1743.82 364"/></svg>