<svg id="Content" xmlns="http://www.w3.org/2000/svg" viewBox="0 0 2048 2048"><defs><style>.cls-1{fill:#606060;}.cls-2{fill:#161616;}.cls-3{fill:#b4b4b4;}.cls-4{fill:gray;}.cls-5{fill:#404040;}</style></defs><g id="Hands"><path class="cls-1" d="M1464.94,1366.43a154.61,154.61,0,0,0-27.82-54.13c-3.88-4.78-27.7-29.35-143.67-140.31l-20.27-19.39,25.67-11.3a192.62,192.62,0,0,0,25.57-13.54c-15.14,9.61-31.57,16.28-41.47,19.84l-10.9,3.93-8.39-8c-89.77-85.69-186.41-177.11-213.89-203.09l-4.89-4.63-.83-6.67a173.51,173.51,0,0,1-1.32-22.53,161.82,161.82,0,0,0,1.08,20.58l1.1,9.55-7.13,6.46c-37.13,33.69-104.92,56.47-132.34,64.7l-10.73,3.22-7.78-7.78,8.5,8.7L889,1024.15c-12.41,23.19-32.93,46.71-56.29,64.52-19.41,14.79-49.7,32.42-83.84,32.42a94.58,94.58,0,0,1-13-.89c-36.8-5.13-49.11-29.3-53.18-43.25-8.08-27.75,2.23-60.71,25.07-80.15,39.6-33.73,68.72-75.63,89-128.09,12.21-31.55,38.37-39.23,71.5-49,17.56-5.15,37.45-11,58.12-21.34,58.58-29.29,117.19-47.48,152.95-47.48a91,91,0,0,1,11.06.64c70.18,8.79,170.3,61.06,236.55,95.64,35.76,18.67,64,33.42,75.82,35.56a22.55,22.55,0,0,0,4.92.46c12.79,0,46.77-5.64,136.06-32.48,37-11.14,72.67-22.64,96-30.33l19.19-6.32,109.12,439.6-23.18.75c-28.07.89-82.64,5.74-132.81,28.17-44.32,19.8-86.55,62.46-114.5,90.69l-24,24.19ZM1359,1087.25ZM859.25,961Zm0-.16Zm195.27-98.4Z"/><path class="cls-2" d="M1079.32,769.68a71.49,71.49,0,0,1,8.73.5c66.83,8.37,165.15,59.7,230.21,93.66,43.71,22.82,67.17,34.85,81.14,37.39a41.86,41.86,0,0,0,8.27.75c13.61,0,46.39-4.69,141.45-33.27,38.22-11.49,75-23.4,96.5-30.48l98.66,397.49c-31.44,1-87.51,6.4-139.86,29.79-47.51,21.23-91.24,65.4-120.17,94.63-.42.41-.83.84-1.25,1.26a172.67,172.67,0,0,0-31.34-60.93c-8.54-10.5-71.71-71.65-145.25-142,27-11.91,63.45-33.77,70.92-67.19a18.75,18.75,0,0,0-36.59-8.17c-4.51,20.22-40.36,38.32-64.14,46.88-89.72-85.65-185.77-176.52-213.95-203.15-1.93-15.47-2.34-41.64,6.45-52.63a18.74,18.74,0,0,0-29.27-23.42c-18.26,22.83-16.73,60.29-14.64,78.55C990.62,960.69,924.73,982.54,900.05,990c-7.21-7.2-18.2-20-23-34.85a18.75,18.75,0,0,0-17.82-13,18.53,18.53,0,0,0-5.79.92,18.74,18.74,0,0,0-12,23.61c6.85,21.12,21,38.38,31,48.64-21.31,39.82-73.83,87-123.6,87a75.16,75.16,0,0,1-10.39-.71c-25-3.5-34.37-18.21-37.78-29.93-6-20.56,2.1-46.06,19.22-60.64,42-35.8,72.9-80.15,94.36-135.6,8.5-22,25.24-27.73,59.3-37.73,18.31-5.37,39.06-11.46,61.23-22.55,56-28,112.16-45.51,144.56-45.51m0-37.48h0c-20,0-45.12,4.7-74.66,14A599.76,599.76,0,0,0,918,781.66c-19.18,9.59-37.4,14.94-55,20.12-19.43,5.7-34.19,10.31-47.29,17.81a80.46,80.46,0,0,0-36.41,42.35c-19.15,49.49-46.53,88.93-83.7,120.59a98.13,98.13,0,0,0-29.71,45.29c-5.81,18.32-6.22,37.12-1.2,54.37,9.07,31.14,34.07,51.76,68.59,56.57a113,113,0,0,0,15.57,1.08c31.16,0,64.08-12.54,95.2-36.27,25.42-19.38,47.82-45.1,61.45-70.57l3.53-6.6,1.82-.54A603.84,603.84,0,0,0,973.77,1003c29.73-12.84,53.65-26.71,71.25-41.31,35.14,33.24,123.24,116.64,205.7,195.36l15.57,14.86,14.2,13.59c117.83,112.74,138.66,134.51,142.12,138.62a135.2,135.2,0,0,1,24.28,47.29l17.31,62.19,45.43-45.86.11-.11,1.13-1.14c27-27.26,67.73-68.42,108.84-86.79,47.25-21.12,99.08-25.7,125.77-26.55l46.35-1.48-11.17-45L1682,829.2,1672.27,790l-38.38,12.63c-23.25,7.66-58.7,19.11-95.56,30.19-95.12,28.6-123.06,31.69-130.66,31.69a8.22,8.22,0,0,1-.85,0l-.72-.13c-9-1.64-41.68-18.69-70.49-33.73-33.18-17.32-74.47-38.87-116.66-57.49-51.77-22.85-93.07-36-126.24-40.13a107.17,107.17,0,0,0-13.39-.79Z"/><path class="cls-1" d="M893.28,1677c-27.74,0-52.86-4.22-74.68-12.53-40.41-15.39-53.54-49.46-52.35-76.21,1.21-27.24,16.47-50.34,37.11-56.16a132.27,132.27,0,0,1,35.65-5.34c15.43,0,28.75,3.41,39.58,10.14,15.23,9.44,25,25.17,29,46.73,6.79,36.23,19.25,50,29.35,58l35.57,28.16L927.48,1675a302.83,302.83,0,0,1-34.19,2Z"/><path class="cls-2" d="M839,1545.54c11.73,0,21.86,2.45,29.7,7.31,10.72,6.65,17.42,17.86,20.5,34.27,6.86,36.62,19.53,56.13,36.14,69.28a282.9,282.9,0,0,1-32.07,1.89c-21.95,0-45.79-2.84-68-11.3-39.12-14.9-40.74-48.06-40.3-57.87.84-19,10.72-35.35,23.47-39a114.12,114.12,0,0,1,30.56-4.62m0-37.49a151,151,0,0,0-40.72,6c-15.39,4.35-28.93,15.16-38.15,30.45a91.14,91.14,0,0,0-12.61,42.93,97.65,97.65,0,0,0,8.72,44.37c10.59,23,29.84,40.35,55.69,50.19,23.94,9.13,51.32,13.75,81.34,13.75a319.4,319.4,0,0,0,36.33-2.13l90.14-10.31L948.62,1627c-8-6.34-17-16.86-22.56-46.79-5.06-27-17.71-46.88-37.58-59.22-13.85-8.59-30.5-13-49.47-13Z"/><path class="cls-1" d="M745.09,1614.67c-20.83-2.77-39.41-14.1-53.74-32.77-20.87-27.2-28.61-65.21-18-88.42,16.9-37,50-58.19,90.71-58.19a125.16,125.16,0,0,1,21.75,2c27,4.8,44.15,30,48.35,71l1.79,17.44-17.28,3a147.38,147.38,0,0,0-15.31,3.47c-21,5.91-35.88,28.49-37.11,56.16-.09,2.2-.09,4.52,0,6.92l1,22.41Z"/><path class="cls-2" d="M764.07,1454a105.07,105.07,0,0,1,18.46,1.68c24,4.27,31,35.07,33,54.47a165.2,165.2,0,0,0-17.24,3.91c-28.77,8.12-49.16,37.6-50.75,73.37-.13,2.82-.11,5.7,0,8.63-19.43-2.58-32.88-14.59-41.33-25.6-18.38-23.94-22.52-54.57-15.82-69.22,13.88-30.38,40.7-47.24,73.67-47.24m0-37.49c-23.4,0-45.58,6.27-64.16,18.12s-33.81,29.6-43.61,51c-13.5,29.53-5,74.8,20.18,107.62,17.42,22.7,40.29,36.5,66.14,39.94l44.47,5.9L785,1594.34c-.09-1.84-.09-3.59,0-5.22.85-19.28,10.51-35.3,23.48-39a130.49,130.49,0,0,1,13.36-3l34.56-5.89-3.57-34.88c-1.77-17.24-5.66-32.37-11.57-45-11-23.43-29.5-38.54-52.15-42.57a143.14,143.14,0,0,0-25-2.26Z"/><path class="cls-1" d="M645.89,1538.42c-19.5-4.33-55.26-16.53-75.63-49.62-13.86-22.53-13.2-53.56,1.67-79,6.69-11.47,26.37-38.15,64.49-38.15,1,0,2,0,2.94.05,25.49.94,48.32,13.16,66,35.32a131,131,0,0,1,11.91,17.79l8.72,15.61-15.18,9.45c-16.28,10.12-28.9,24.81-37.51,43.66-3.27,7.15-4.88,16.22-4.66,26.22l.53,23.89Z"/><path class="cls-2" d="M636.42,1390.34c.74,0,1.5,0,2.25,0,20.15.75,37.68,10.27,52.1,28.3A111.51,111.51,0,0,1,701,1433.9c-19,11.8-34.39,29.33-44.66,51.79-4.58,10-6.63,21.87-6.35,34.43-19.68-4.37-47.91-15.45-63.72-41.15-10.29-16.71-9.54-40.18,1.89-59.78,5.14-8.8,20-28.85,48.3-28.85m0-37.49a90.29,90.29,0,0,0-55.8,19,100.34,100.34,0,0,0-24.88,28.47A103.64,103.64,0,0,0,541.56,1449a88.89,88.89,0,0,0,12.74,49.64c24,39,65.14,53.13,87.54,58.09l46.65,10.35-1.06-47.78c-.16-7.08.89-13.48,3-18,7.06-15.44,17.28-27.39,30.37-35.54l30.37-18.9-17.45-31.22a150.65,150.65,0,0,0-13.63-20.35c-21.24-26.54-48.9-41.19-80-42.34-1.22,0-2.44-.07-3.64-.07Z"/><path class="cls-1" d="M531.18,1463.12c-51.43-34.92-50.64-88.16-50-98.48s6.55-27.59,17.8-41.47c14.1-17.38,34-26.57,57.53-26.57,1.23,0,2.5,0,3.76.07,27.84,1.11,52.33,19.06,68.93,50.56l11,20.78-22.69,6.07c-18.91,5.05-35.1,17.72-45.57,35.67a84.83,84.83,0,0,0-11.5,38.7l-1.51,33.5Z"/><path class="cls-2" d="M556.55,1315.34c1,0,2,0,3,.06,27,1.07,44,23.21,53.1,40.57-23.47,6.27-43.77,21.79-56.92,44.33a103.52,103.52,0,0,0-14,47.31c-42.68-29-42.42-72.19-41.79-81.74.4-5.92,4.46-19.54,13.66-30.89,10.57-13,25-19.64,43-19.64m0-37.48c-29.38,0-54.31,11.59-72.09,33.51-14.84,18.31-21.09,39.45-21.94,52a128.33,128.33,0,0,0,6.48,47.92c9.07,27.27,26.93,50.56,51.66,67.34l55.48,37.66,3-67a66,66,0,0,1,9-30.1c8-13.65,20.12-23.24,34.22-27l45.39-12.13-21.91-41.56c-19.85-37.66-50-59.16-84.78-60.54-1.49-.06-3-.09-4.49-.09Z"/><path class="cls-3" d="M1029.35,1684c-1,0-2,0-3,0l-3.71-.14-42.39-19.27-6.61-3-.55-.24c-17.55-7.88-31.41-14.09-42.45-25.41-11.48-11.77-18.37-27.38-23-52.21-4-21.26-14-37.42-29-46.73a68.39,68.39,0,0,0-27.8-9.33l-15-1.89-1.3-15.1a144.89,144.89,0,0,0-4.28-25.06c-7.58-28.16-22.51-44.41-44.37-48.3a124.89,124.89,0,0,0-21.81-2,108.15,108.15,0,0,0-24,2.64l-14.1,3.21-6.68-12.82a132.67,132.67,0,0,0-13.05-20.37c-15.49-19.78-34.38-31.63-56.12-35.21L639.63,1371l-3.92-9.81A144.14,144.14,0,0,0,622,1335c-16.42-24.49-37.19-37.39-61.72-38.37-1.29-.05-2.58-.07-3.84-.07-19.63,0-36.34,6.17-49.68,18.34l-6.91,6.31-9.19-1.73c-13.83-2.61-37.27-6.78-70.36-11.89-54.58-8.42-104.53-39.14-129.44-56.71L279.64,1243,420.27,801.73l19.43,9.33c15.64,7.51,40,18.88,66.92,30.34,77.46,32.92,113.89,39.83,130.82,39.83H793.19l-14.81,27.6a298.88,298.88,0,0,1-70.66,88,79.24,79.24,0,0,0-24.3,37.44c-4.35,14.3-4.62,29.46-.77,42.71,7,24.08,25.91,39.44,53.18,43.25a93.06,93.06,0,0,0,12.77.88c58.18,0,119.65-53.3,143.25-102.67l3.6-7.54,8-2.36c20.14-5.92,89-27.82,129.58-61.27l12.77-10.53,12,11.37c140.8,133.15,306.83,291.33,360.37,344.59l.23.23.22.24c16.74,17.85,21.91,24.87,24.35,28.6,15.19,23.26,24.21,49.33,26.09,75.39,1.68,23.33-2.47,45.91-11.68,63.56-12.17,23.32-33.38,35.66-61.34,35.66h0a125.26,125.26,0,0,1-30.95-4.3l-5.85-1.5-.16-.19.21,6.43c1.17,35.8-8.21,62.62-27.12,77.56-12,9.49-27.58,14.31-46.24,14.31-11.74,0-24.78-1.92-38.77-5.71l-6.52-1.77-1.92-2.72,1.88,2.7-.39,6.49a82,82,0,0,1-6.08,26.39c-8.91,21.36-26.77,36.93-51.64,45-11,3.56-21,5.36-29.92,5.36-14.34,0-33.62-4.71-44.07-27.12l-1.94-2.64-.92-3.06c-.16-.53-.32-1-.49-1.57l-3.72,8.17-.17.34a92.54,92.54,0,0,1-23.58,28.42A75.77,75.77,0,0,1,1029.35,1684Zm65.72-253.74c.81.75,60.74,55.73,104.39,101.88C1166.43,1497.07,1122.77,1455.59,1095.07,1430.22Zm-104.26,70.29Zm215.54-165.18c2.89,2.76,46.05,44,86.58,84.55C1252.32,1379.18,1209.24,1338.08,1206.35,1335.33Z"/><path class="cls-2" d="M431.58,828c16.11,7.73,40.57,19.15,67.71,30.69,64.52,27.42,111,41.32,138.15,41.32H761.87a281.85,281.85,0,0,1-66.3,82.56,98,98,0,0,0-30.08,46.25c-5.4,17.74-5.7,36.71-.83,53.41,9.07,31.14,34.07,51.76,68.59,56.57a109.89,109.89,0,0,0,15.35,1.06c68.32,0,135.16-61,160.16-113.33,24.53-7.2,93.55-29.62,136.22-64.79,127.57,120.64,303.48,288,360,344.26,11.29,12,19,21,22.33,26,29.23,44.76,27.83,92.53,13.48,120-8.89,17-23.87,25.59-44.72,25.59a106.17,106.17,0,0,1-26.28-3.7c-34.92-41.85-145.65-147.48-150.54-152.14a18.74,18.74,0,1,0-25.86,27.14c1.18,1.13,113.87,108.61,147.2,148.5.71,21.88-2.6,48.48-20,62.24-9.56,7.55-21.85,10.27-34.62,10.27-11.46,0-23.3-2.19-33.87-5.05-31.43-44.54-132.45-137.52-144.4-148.46a18.74,18.74,0,1,0-25.31,27.64c31.64,29,115.45,108.5,139.15,142.5a63.23,63.23,0,0,1-4.67,20.29c-6.84,16.39-20.35,28-40.14,34.4-9.8,3.19-17.72,4.45-24.11,4.45-19.51,0-25-11.71-27.11-16.33l-.12-.26a18.81,18.81,0,0,0-1.77-2.92c-23-76-118.55-138.74-122.63-141.39a18.74,18.74,0,0,0-20.42,31.44c.85.55,81,53.27,104.43,112.91l-.43.95a74.32,74.32,0,0,1-18.56,22.24,57.24,57.24,0,0,1-36.68,12.89c-.77,0-1.55,0-2.33,0l-39-17.73-7.24-3.26c-33-14.8-46.66-20.93-54.72-64-5-26.58-18-47-37.58-59.21a87.35,87.35,0,0,0-35.35-12,165.63,165.63,0,0,0-4.85-28.32c-12-44.58-38.81-58.26-59.19-61.88a143.28,143.28,0,0,0-25.09-2.26,126.62,126.62,0,0,0-28.15,3.1,152.36,152.36,0,0,0-14.91-23.25c-18.37-23.45-41.62-37.84-67.83-42.16a161.94,161.94,0,0,0-15.52-29.63c-19.67-29.32-46.13-45.45-76.55-46.65-1.55-.07-3.08-.1-4.58-.1-28.86,0-48.93,11-62.31,23.25-14.52-2.74-38.06-6.92-71-12-52.1-8-101-39-121.51-53.5L431.58,828M409,775.5l-13.08,41.07L266,1224.22l-8.35,26.19,22.47,15.83c26.26,18.51,79,50.91,137.38,59.91,32.83,5.07,56.06,9.21,69.75,11.79l18.39,3.46,13.82-12.61c9.91-9,22-13.45,37-13.45,1,0,2.06,0,3.1.06,18.21.72,34,10.84,46.9,30.08a125.52,125.52,0,0,1,11.84,22.68l7.86,19.63,20.85,3.43c17,2.8,31.91,12.31,44.41,28.28A113.6,113.6,0,0,1,702.61,1437L716,1462.62l28.2-6.43A89.25,89.25,0,0,1,764,1454a105.89,105.89,0,0,1,18.53,1.69c9.11,1.62,22.09,7,29.55,34.71a126.87,126.87,0,0,1,3.71,21.8l2.6,30.19,30.06,3.78c7.93,1,14.74,3.24,20.26,6.67,10.57,6.55,17.47,18.08,20.5,34.26,5.38,28.73,13.76,47.22,28,61.84,13.53,13.87,29.6,21.07,48.2,29.42l.49.22,6.59,3,39,17.73,6.76,3.08,7.43.26c1.22,0,2.44.06,3.65.06a95.33,95.33,0,0,0,60.09-21.1,111.11,111.11,0,0,0,16.29-16.12c.76.73,1.55,1.45,2.38,2.17,8.22,7.08,22.62,15.51,44.53,15.51,11,0,22.68-2.05,35.69-6.27,30.24-9.84,52.07-29.07,63.16-55.63a98.51,98.51,0,0,0,5.3-16.85,153.88,153.88,0,0,0,29.2,3c23,0,42.45-6.17,57.85-18.34,14.43-11.4,24.47-27.54,29.83-48a141.56,141.56,0,0,0,4.2-27.36,127.93,127.93,0,0,0,18.23,1.37c34.89,0,62.57-16.24,78-45.74,10.79-20.68,15.68-46.81,13.75-73.57-2.1-29.23-12.16-58.37-29.09-84.29-3-4.68-8.81-12.46-26.37-31.17l-.44-.48-.47-.46c-53.64-53.36-219.81-211.68-360.7-344.91l-24-22.75-25.55,21.06C983.3,964,917.47,984.86,898.19,990.53l-16,4.71-7.21,15.09c-10.46,21.89-30.22,45.33-52.85,62.71-24.59,18.89-50.69,29.29-73.49,29.29a74.38,74.38,0,0,1-10.18-.69c-13.81-1.93-31.58-8.69-37.77-29.93-2.81-9.65-2.55-21.31.7-32a60.62,60.62,0,0,1,18.52-28.64,317.47,317.47,0,0,0,75-93.38l29.62-55.21H637.44c-12.43,0-45-5-123.49-38.33-26.63-11.32-50.67-22.56-66.14-30L409,775.5Z"/></g><g id="Wordmark"><path class="cls-4" d="M798.06,505.47V455.18H769.64v-66H712.57v66H691.36v50.29h21.21V623.1q0,29.74,14.21,44.94t44.39,15.19h26.89V627.7H783q-6.35,0-9.83-4.16t-3.5-12.24V505.47Z"/><path class="cls-4" d="M934.61,455.18V607.8q0,12.9-6.45,19.9t-18.91,6.77q-12.69.22-19.25-6.45t-6.56-19.13V455.18H826.82V610q0,37,15.85,56.2t46.24,19.24q18.15,0,30.5-11.26A62,62,0,0,0,934.61,652v30.19H991v-227Z"/><path class="cls-5" d="M614.94,455V607.57q0,12.9-6.45,19.89t-18.91,6.78q-12.69.22-19.24-6.45t-6.56-19.13V568.74h0V545.48h0v-16c0-16.47-2.08-30.57-6.89-42.31s-11.44-20.66-20.55-26.78-20.08-9.18-32.91-9.18a55.84,55.84,0,0,0-33.89,11.26Q455.83,472.6,447,490.33c-.51-1.48-1.06-2.92-1.65-4.33q-7.11-17.06-20.66-25.91t-32.8-8.85a52.26,52.26,0,0,0-32.79,10.93,68.26,68.26,0,0,0-18.15,22V455H283.69v227H341V533q0-13.77,6.78-21.21t19.46-7.43q13.77,0,21,8.2t7.21,23.5V681.91h57.07V535.2q0-14.87,7.1-22.85t20.23-8q13.11,0,20.22,8.2t7.11,23.5v73.68q0,37,15.85,56.2t46.25,19.24q18.13,0,30.5-11.26a62,62,0,0,0,15.19-22.21v30.19h56.41V455Z"/><path class="cls-4" d="M1177.85,486.44A63.67,63.67,0,0,0,1150,460.31q-18.27-9.07-43.84-9.07-30,0-50.07,13.44T1029.18,502l44.38,18.15a34.11,34.11,0,0,1,13.23-12.68,38.39,38.39,0,0,1,18.69-4.59q14,0,21.65,6.66t7.65,18.92v18.15h-35.42q-38.7,0-58.38,18.14t-19.68,52.92q0,33.45,15.64,50.5t46.68,17.06a70.53,70.53,0,0,0,27.22-5,46.85,46.85,0,0,0,19.68-14.87,38.68,38.68,0,0,0,4.26-7.08v23.7h52.69V527.54Q1187.47,503.5,1177.85,486.44Zm-52,146.27q-9,5.91-26.68,5.91-12.67,0-19-5.25t-6.34-15.74q0-13.33,6.89-20t20.22-6.67h33.89v24Q1134.78,626.81,1125.82,632.71Z"/><path class="cls-4" d="M1556.23,503.71,1471,629.43h91.17v52.48h-155V632.27L1495,507.43h-84.84V455h146.06Z"/><path class="cls-4" d="M1752.25,590.51v-40q0-31.49-9.73-53.68T1714.2,463q-18.59-11.58-44.82-11.59-26.89,0-45.92,10.61a70.23,70.23,0,0,0-29.08,30.72q-10.05,20.12-10.05,48.54v58.16q0,26.89,10.49,46.13A70.53,70.53,0,0,0,1624.89,675q19.56,10.17,47.33,10.17,31.27,0,51.06-13.89t26.35-41.43l-47.89-18.15Q1698,623.09,1690.26,629t-19.57,5.9q-15.53,0-24-8.86t-8.52-25.47V590.51Zm-105.83-78.38q8.31-9.51,23-9.51,12.9,0,21.1,8.42t8.2,22.84v16.18h-60.56V538.91Q1638.12,521.65,1646.42,512.13Z"/><path class="cls-4" d="M1323.7,626.59H1298q-7.65,0-11.91-4.37T1281.82,610V364H1225V621.78q0,28.65,14.87,44.38t41.55,15.75h99.37V455H1323.7Z"/><rect class="cls-4" x="1323.7" y="364" width="57.07" height="56.63"/></g><polygon points="1705.88 364 1672.73 364 1672.73 372.64 1684.88 372.64 1684.88 407.76 1693.73 407.76 1693.73 372.64 1705.88 372.64 1705.88 364"/><polygon points="1743.82 364 1731.6 388.72 1719.37 364 1710.94 364 1710.94 407.76 1719.3 407.76 1719.3 379.74 1730.19 401.86 1733.07 401.86 1743.96 379.26 1743.96 407.76 1752.25 407.76 1752.25 364 1743.82 364"/></svg>