<svg id="Content" xmlns="http://www.w3.org/2000/svg" viewBox="0 0 2048 2048"><defs><style>.cls-1{fill:#8d5524;}.cls-2{fill:#161032;}.cls-3{fill:#e0ac69;}.cls-4{fill:#ffc53a;}</style></defs><g id="Hands"><path class="cls-1" d="M1466,1201.48a154.42,154.42,0,0,0-27.81-54.13c-3.89-4.78-27.72-29.35-143.68-140.31l-20.26-19.38,25.67-11.31a192.84,192.84,0,0,0,25.48-13.48c-15.12,9.58-31.5,16.23-41.38,19.79l-10.91,3.92-8.38-8c-89.81-85.72-186.42-177.12-213.89-203.09l-4.89-4.62-.83-6.68a171.63,171.63,0,0,1-1.33-22.54,160.21,160.21,0,0,0,1.09,20.59l1.09,9.55-7.12,6.47c-37.13,33.68-104.93,56.47-132.35,64.7l-10.72,3.21L888,838.42l8.47,8.67L890,859.2c-12.41,23.19-32.92,46.71-56.29,64.52-19.4,14.79-49.7,32.42-83.83,32.42a94.83,94.83,0,0,1-13-.89c-36.8-5.13-49.11-29.3-53.17-43.25-8.08-27.74,2.23-60.7,25.07-80.15,39.6-33.73,68.72-75.62,89-128.09,12.22-31.55,38.38-39.23,71.5-49,17.56-5.15,37.46-11,58.12-21.33C986,604.18,1044.58,586,1080.34,586a91,91,0,0,1,11.06.64c70.19,8.79,170.3,61.06,236.55,95.64,35.76,18.67,64,33.42,75.82,35.57a23.36,23.36,0,0,0,4.93.45c12.78,0,46.76-5.64,136-32.48,37.07-11.14,72.68-22.64,96-30.33l19.18-6.32,109.12,439.61-23.18.74c-28.06.89-82.63,5.75-132.81,28.17-44.31,19.8-86.55,62.46-114.5,90.7l-24,24.15ZM1360,922.38Zm0-.08Zm-304.6-224.7Zm0-.07Z"/><path class="cls-2" d="M1080.34,604.73a71.49,71.49,0,0,1,8.73.5c66.84,8.37,165.15,59.7,230.21,93.66,43.71,22.82,67.18,34.85,81.14,37.39a41.9,41.9,0,0,0,8.28.75c13.6,0,46.38-4.69,141.45-33.27,38.22-11.49,75-23.4,96.49-30.48l98.66,397.49c-31.44,1-87.51,6.4-139.85,29.8-47.52,21.22-91.25,65.39-120.18,94.62l-1.25,1.26a172.81,172.81,0,0,0-31.33-60.93c-8.55-10.5-71.72-71.65-145.26-142,27-11.91,63.46-33.77,70.92-67.19a18.74,18.74,0,1,0-36.58-8.17c-4.52,20.22-40.37,38.32-64.14,46.88-89.73-85.64-185.78-176.51-214-203.15-1.92-15.47-2.34-41.63,6.46-52.63a18.75,18.75,0,0,0-29.28-23.42c-18.26,22.83-16.73,60.29-14.64,78.55C991.64,795.74,925.75,817.6,901.07,825c-7.2-7.2-18.19-20-23-34.84a18.74,18.74,0,0,0-17.82-13,18.53,18.53,0,0,0-5.79.92,18.74,18.74,0,0,0-12,23.61c6.84,21.12,21,38.38,31,48.64-21.3,39.82-73.83,87-123.59,87a75.19,75.19,0,0,1-10.4-.71c-25-3.49-34.36-18.2-37.78-29.93-6-20.56,2.1-46.06,19.23-60.64,42-35.8,72.9-80.15,94.35-135.59,8.5-22,25.25-27.74,59.3-37.73,18.31-5.38,39.06-11.47,61.23-22.56,56-28,112.16-45.51,144.56-45.51m0-37.48h0c-20,0-45.12,4.7-74.65,14A600,600,0,0,0,919,616.71c-19.18,9.6-37.4,14.94-55,20.12-19.43,5.7-34.19,10.32-47.29,17.81A80.52,80.52,0,0,0,780.3,697c-19.16,49.49-46.54,88.94-83.71,120.59a98.21,98.21,0,0,0-29.71,45.29c-5.8,18.32-6.22,37.13-1.2,54.37,9.07,31.14,34.07,51.76,68.59,56.58a113.15,113.15,0,0,0,15.58,1.07c31.15,0,64.07-12.54,95.19-36.27,25.43-19.38,47.83-45.1,61.46-70.57l3.52-6.59,1.83-.55a601.5,601.5,0,0,0,62.94-22.82c29.73-12.84,53.66-26.71,71.25-41.3,35.14,33.23,123.24,116.64,205.7,195.35l15.66,15,14.12,13.5c117.83,112.74,138.65,134.51,142.12,138.62a135.26,135.26,0,0,1,24.27,47.29l17.31,62.19,45.43-45.86.46-.46.79-.79c27-27.26,67.73-68.42,108.84-86.79,47.25-21.11,99.07-25.7,125.76-26.55l46.36-1.48-11.18-45L1683,664.25,1673.29,625l-38.37,12.63c-23.26,7.66-58.71,19.11-95.57,30.19-95.12,28.6-123.06,31.69-130.65,31.69a8.34,8.34,0,0,1-.86,0l-.72-.13c-9-1.63-41.67-18.69-70.49-33.73-33.18-17.32-74.46-38.87-116.65-57.49-51.78-22.85-93.08-36-126.25-40.13a107.06,107.06,0,0,0-13.39-.79Z"/><path class="cls-1" d="M894.31,1512.08c-27.74,0-52.87-4.21-74.68-12.52-40.41-15.4-53.54-49.46-52.35-76.22,1.21-27.24,16.47-50.34,37.1-56.16a132.23,132.23,0,0,1,35.65-5.33c15.43,0,28.75,3.41,39.59,10.13,15.22,9.45,25,25.17,29,46.73,6.78,36.23,19.25,50,29.35,58l35.56,28.16-45.07,5.15a300.24,300.24,0,0,1-34.19,2Z"/><path class="cls-2" d="M840,1380.59c11.73,0,21.86,2.45,29.71,7.32,10.71,6.64,17.42,17.85,20.5,34.26,6.86,36.63,19.53,56.14,36.13,69.28a282.71,282.71,0,0,1-32.06,1.89c-22,0-45.8-2.84-68-11.3-39.12-14.9-40.73-48.06-40.3-57.86.84-19,10.72-35.36,23.48-39a113.69,113.69,0,0,1,30.55-4.63m0-37.49a151,151,0,0,0-40.72,6c-15.39,4.35-28.93,15.16-38.15,30.45a91.17,91.17,0,0,0-12.61,42.93,97.92,97.92,0,0,0,8.72,44.37c10.59,23,29.85,40.35,55.69,50.19,23.95,9.13,51.32,13.75,81.35,13.75a321.63,321.63,0,0,0,36.32-2.12l90.14-10.31-71.13-56.33c-8-6.34-16.95-16.86-22.56-46.79-5.06-27-17.7-46.88-37.58-59.22-13.85-8.59-30.49-13-49.47-13Z"/><path class="cls-1" d="M746.11,1449.72c-20.82-2.77-39.4-14.1-53.73-32.77-20.88-27.2-28.62-65.21-18-88.42,16.9-37,50-58.19,90.71-58.19a125.05,125.05,0,0,1,21.74,2c27,4.8,44.15,30,48.35,71l1.79,17.44-17.28,3a149.22,149.22,0,0,0-15.3,3.47c-21,5.92-35.88,28.49-37.11,56.16-.1,2.19-.09,4.52,0,6.92l1.05,22.41Z"/><path class="cls-2" d="M765.09,1289.08a105.07,105.07,0,0,1,18.46,1.68c24,4.27,31,35.07,33,54.47a167.79,167.79,0,0,0-17.24,3.91c-28.76,8.12-49.16,37.61-50.75,73.37q-.18,4.23,0,8.63c-19.43-2.58-32.88-14.59-41.34-25.6-18.37-23.94-22.52-54.57-15.82-69.22,13.88-30.37,40.7-47.24,73.67-47.24m0-37.49c-23.4,0-45.58,6.27-64.15,18.12-18.74,12-33.82,29.6-43.61,51-13.51,29.53-5,74.8,20.18,107.63,17.42,22.69,40.28,36.5,66.13,39.93l44.48,5.9-2.1-44.82c-.08-1.82-.09-3.58,0-5.21.86-19.27,10.51-35.29,23.48-39a130.41,130.41,0,0,1,13.36-3l34.56-5.9-3.57-34.88c-1.77-17.23-5.66-32.37-11.57-45-11-23.42-29.49-38.54-52.15-42.57a143.14,143.14,0,0,0-25-2.26Z"/><path class="cls-1" d="M646.92,1373.47c-19.5-4.33-55.26-16.53-75.63-49.62-13.86-22.53-13.21-53.56,1.67-79,6.69-11.47,26.37-38.15,64.49-38.15,1,0,1.95,0,2.94,0,25.48,1,48.32,13.16,66,35.32a130.65,130.65,0,0,1,11.91,17.79l8.73,15.61-15.19,9.45c-16.27,10.12-28.89,24.81-37.51,43.66-3.27,7.15-4.88,16.22-4.65,26.22l.53,23.89Z"/><path class="cls-2" d="M637.45,1225.39c.74,0,1.49,0,2.25,0,20.15.75,37.68,10.27,52.1,28.3A112.6,112.6,0,0,1,702,1269c-19,11.8-34.39,29.33-44.65,51.79-4.59,10-6.63,21.87-6.35,34.43-19.68-4.37-47.91-15.44-63.73-41.14-10.28-16.72-9.54-40.19,1.9-59.79,5.13-8.8,20-28.85,48.3-28.85m0-37.48a90.31,90.31,0,0,0-55.81,19,100.27,100.27,0,0,0-24.87,28.47A103.52,103.52,0,0,0,542.59,1284a88.89,88.89,0,0,0,12.73,49.64c24,39,65.14,53.13,87.54,58.1l46.66,10.35-1.07-47.78c-.15-7.09.9-13.49,3-18,7.06-15.45,17.27-27.4,30.36-35.55l30.37-18.9-17.45-31.22a149,149,0,0,0-13.63-20.34c-21.23-26.55-48.89-41.2-80-42.35-1.21,0-2.43-.06-3.63-.06Z"/><path class="cls-1" d="M532.21,1298.17c-51.45-34.92-50.65-88.16-50-98.48s6.55-27.59,17.8-41.46c14.09-17.39,34-26.58,57.52-26.58,1.24,0,2.5,0,3.76.08,27.85,1.1,52.33,19,68.93,50.55l11,20.78-22.7,6.07c-18.91,5-35.09,17.72-45.56,35.67a84.59,84.59,0,0,0-11.5,38.7L560,1317Z"/><path class="cls-2" d="M557.57,1150.39c1,0,2,0,3,.07,27,1.07,43.95,23.2,53.1,40.56-23.47,6.27-43.76,21.79-56.91,44.33a103.54,103.54,0,0,0-14,47.31c-42.68-29-42.41-72.18-41.78-81.73.4-5.93,4.46-19.55,13.66-30.9,10.56-13,25-19.64,43-19.64m0-37.48c-29.38,0-54.31,11.59-72.08,33.51-14.85,18.31-21.1,39.45-21.94,52a128.09,128.09,0,0,0,6.48,47.92c9.06,27.27,26.92,50.56,51.65,67.34l55.49,37.67,3-67a65.88,65.88,0,0,1,9-30.11c8-13.65,20.11-23.24,34.21-27l45.39-12.13-21.91-41.57c-19.85-37.66-50-59.16-84.77-60.54-1.5-.06-3-.09-4.5-.09Z"/><path class="cls-3" d="M1030.37,1519c-1,0-2,0-3,0l-3.71-.13-42.38-19.27c-2.37-1.08-4.69-2.12-6.94-3.13l-.23-.1c-17.54-7.87-31.41-14.09-42.45-25.41-11.48-11.77-18.36-27.38-23-52.21-4-21.26-14-37.42-29-46.73a68.44,68.44,0,0,0-27.8-9.33l-15-1.89-1.3-15.1a144.61,144.61,0,0,0-4.28-25.05c-7.58-28.17-22.5-44.42-44.37-48.31a125.75,125.75,0,0,0-21.8-2,108.15,108.15,0,0,0-24,2.64l-14.1,3.21-6.69-12.82a131.61,131.61,0,0,0-13-20.36c-15.49-19.79-34.37-31.64-56.12-35.22l-10.42-1.72-3.93-9.81A144.47,144.47,0,0,0,623,1170.09c-16.42-24.48-37.18-37.39-61.72-38.36-1.28,0-2.58-.08-3.84-.08-19.62,0-36.34,6.17-49.67,18.34l-6.91,6.31-9.19-1.73c-13.85-2.61-37.29-6.79-70.37-11.89-54.57-8.42-104.52-39.14-129.44-56.7l-11.23-7.92L421.29,636.78l19.43,9.33c15.65,7.52,40,18.88,66.92,30.34,77.46,32.92,113.9,39.83,130.82,39.83H794.22l-14.81,27.6a298.91,298.91,0,0,1-70.67,88,79.3,79.3,0,0,0-24.29,37.44c-4.36,14.3-4.63,29.46-.77,42.71,7,24.09,25.9,39.45,53.18,43.25a92.91,92.91,0,0,0,12.76.88c58.18,0,119.66-53.3,143.25-102.67l3.61-7.54,8-2.36c20.14-5.91,89-27.82,129.59-61.27l12.77-10.53,12,11.38c140.82,133.16,306.86,291.35,360.36,344.58l.23.23.22.24c16.75,17.86,21.92,24.88,24.36,28.61,15.18,23.25,24.2,49.32,26.08,75.38,1.68,23.33-2.46,45.91-11.68,63.56-12.17,23.33-33.38,35.66-61.34,35.66h0a125.32,125.32,0,0,1-30.95-4.3l-5.85-1.5-.15-.18.21,6.43c1.16,35.79-8.21,62.61-27.13,77.55-12,9.5-27.57,14.31-46.24,14.31-11.74,0-24.78-1.92-38.76-5.71l-6.52-1.76-2-2.85,2,2.82-.38,6.5a81.79,81.79,0,0,1-6.09,26.38c-8.91,21.36-26.77,36.93-51.64,45-11,3.56-21,5.36-29.91,5.36-14.34,0-33.62-4.7-44.07-27.1l0-.08-1.89-2.58-.93-3.06-.48-1.56-3.73,8.17-.18.35a92.55,92.55,0,0,1-23.57,28.4A75.73,75.73,0,0,1,1030.37,1519Zm65.72-253.74c1,.88,83.23,76.36,125.18,124.7C1181,1343.38,1105.81,1274.17,1096.09,1265.27Zm-104.26,70.29Zm215.55-165.18c.91.87,73.26,69.88,119.79,118.46C1281.25,1240.84,1211.08,1173.92,1207.38,1170.38Z"/><path class="cls-2" d="M432.61,663c16.1,7.73,40.56,19.15,67.7,30.69,64.52,27.42,111,41.32,138.15,41.32H762.89a281.72,281.72,0,0,1-66.3,82.56,98,98,0,0,0-30.07,46.25c-5.41,17.74-5.7,36.71-.84,53.41,9.07,31.14,34.07,51.76,68.59,56.58a111.67,111.67,0,0,0,15.36,1c68.32,0,135.16-61,160.15-113.33,24.53-7.2,93.56-29.61,136.23-64.79,127.57,120.64,303.48,288,360,344.26,11.29,12,19,21,22.33,26,29.23,44.76,27.84,92.53,13.49,120-8.89,17-23.88,25.59-44.73,25.59a106.28,106.28,0,0,1-26.28-3.71c-34.91-41.85-145.65-147.48-150.53-152.14a18.74,18.74,0,1,0-25.86,27.14c1.18,1.13,113.87,108.61,147.19,148.51.72,21.87-2.59,48.47-20,62.24-9.55,7.54-21.85,10.26-34.62,10.26-11.46,0-23.3-2.19-33.87-5-31.43-44.53-132.44-137.52-144.39-148.46a18.74,18.74,0,0,0-25.32,27.64c31.64,29,115.45,108.5,139.16,142.5a63.5,63.5,0,0,1-4.67,20.29c-6.85,16.39-20.35,28-40.15,34.4-9.8,3.19-17.71,4.45-24.11,4.45-19.51,0-25-11.71-27.1-16.32l-.12-.26a19,19,0,0,0-1.78-2.93c-23-76-118.55-138.74-122.62-141.38a18.74,18.74,0,0,0-20.42,31.43c.84.55,81,53.27,104.43,112.92l-.44.94a73.89,73.89,0,0,1-18.55,22.24,57.3,57.3,0,0,1-36.69,12.9c-.77,0-1.55,0-2.33,0l-39-17.74-7.25-3.26c-33-14.8-46.66-20.93-54.72-64-5-26.57-18-47-37.58-59.21a87.3,87.3,0,0,0-35.34-12,164.76,164.76,0,0,0-4.86-28.32c-12-44.58-38.81-58.26-59.19-61.88a143.11,143.11,0,0,0-25.09-2.26,126.62,126.62,0,0,0-28.15,3.11A151.92,151.92,0,0,0,722,1231.44c-18.36-23.45-41.61-37.83-67.83-42.15a162,162,0,0,0-15.52-29.64c-19.66-29.32-46.13-45.45-76.54-46.65-1.56-.06-3.08-.09-4.59-.09-28.86,0-48.93,11-62.31,23.24-14.52-2.74-38.06-6.91-71-12-52.1-8-101-39-121.5-53.5L432.61,663M410,610.55l-13.09,41.07L267,1059.27l-8.34,26.19,22.46,15.84c26.26,18.5,79,50.9,137.38,59.9,32.82,5.07,56,9.21,69.76,11.79l18.38,3.46,13.82-12.61c9.91-9,22-13.45,37-13.45,1,0,2.06,0,3.11.06,18.21.73,34,10.85,46.89,30.08a125,125,0,0,1,11.85,22.68l7.85,19.63,20.86,3.43c17,2.8,31.9,12.31,44.41,28.28A113.93,113.93,0,0,1,703.63,1272L717,1297.67l28.2-6.43a90,90,0,0,1,19.82-2.16,105.86,105.86,0,0,1,18.53,1.68c9.11,1.62,22.09,7,29.55,34.71a126.08,126.08,0,0,1,3.71,21.8l2.6,30.19,30.07,3.78a50,50,0,0,1,20.26,6.67c10.56,6.55,17.46,18.08,20.5,34.27,5.38,28.72,13.76,47.21,28,61.83,13.53,13.87,29.59,21.08,48.2,29.42l.4.18,6.67,3,39,17.73,6.77,3.08,7.43.26c1.21,0,2.44.06,3.64.06a95.28,95.28,0,0,0,60.09-21.1,110.58,110.58,0,0,0,16.29-16.11c.76.72,1.56,1.45,2.39,2.16,8.21,7.08,22.61,15.51,44.52,15.51,11,0,22.69-2,35.69-6.27,30.24-9.84,52.08-29.07,63.16-55.63a99.5,99.5,0,0,0,5.31-16.85,153.7,153.7,0,0,0,29.19,3c23,0,42.45-6.17,57.86-18.34,14.43-11.4,24.46-27.54,29.82-48a141,141,0,0,0,4.2-27.37,127.93,127.93,0,0,0,18.23,1.37c34.89,0,62.58-16.24,78-45.74,10.8-20.68,15.68-46.81,13.76-73.57-2.11-29.23-12.17-58.37-29.09-84.29-3.06-4.67-8.82-12.46-26.38-31.17l-.44-.48-.46-.46c-53.64-53.36-219.82-211.68-360.71-344.91l-24-22.75-25.55,21.06C984.33,799,918.49,819.92,899.22,825.58l-16.05,4.71L876,845.38c-10.46,21.89-30.21,45.33-52.84,62.71-24.6,18.89-50.7,29.3-73.49,29.3a74.16,74.16,0,0,1-10.18-.7c-13.82-1.93-31.59-8.69-37.78-29.93-2.81-9.65-2.55-21.31.71-32a60.52,60.52,0,0,1,18.52-28.64,317.31,317.31,0,0,0,75-93.38l29.62-55.21H638.46c-12.43,0-45-5-123.49-38.33-26.63-11.32-50.66-22.55-66.14-30L410,610.55Z"/></g><polygon class="cls-4" points="1698.94 547.73 1665.78 547.73 1665.78 556.37 1677.93 556.37 1677.93 591.5 1686.79 591.5 1686.79 556.37 1698.94 556.37 1698.94 547.73"/><polygon class="cls-4" points="1736.87 547.73 1724.65 572.46 1712.43 547.73 1704 547.73 1704 591.5 1712.36 591.5 1712.36 563.48 1723.24 585.6 1726.13 585.6 1737.01 563 1737.01 591.5 1745.3 591.5 1745.3 547.73 1736.87 547.73"/></svg>