<svg id="Content" xmlns="http://www.w3.org/2000/svg" viewBox="0 0 2048 2048"><defs><style>.cls-1{fill:#ffc53a;}.cls-2{fill:#e06d06;}.cls-3{fill:gray;}.cls-4{fill:#404040;}.cls-5{fill:#c7c7c7;}.cls-6{fill:#848484;}.cls-7{fill:#fff;}</style></defs><rect y="1011.76" width="2048" height="517"/><g id="Wordmark"><path class="cls-1" d="M804.09,266V215.68H775.67v-66H718.6v66H697.39V266H718.6V383.61q0,29.73,14.21,44.93t44.39,15.19h26.89V388.2H789q-6.35,0-9.84-4.16c-2.33-2.76-3.49-6.85-3.49-12.24V266Z"/><path class="cls-1" d="M940.64,215.68V368.3q0,12.9-6.45,19.9T915.27,395q-12.67.22-19.24-6.45t-6.56-19.13V215.68H832.84V370.49q0,36.94,15.86,56.19t46.24,19.24q18.15,0,30.5-11.26a62.16,62.16,0,0,0,15.2-22.21v30.19h56.41v-227Z"/><path class="cls-2" d="M621,215.45V368.07q0,12.9-6.45,19.9t-18.91,6.77q-12.69.22-19.24-6.45t-6.56-19.13V329.24h0V306h0V290c0-16.47-2.08-30.57-6.89-42.31S551.48,227,542.37,220.92s-20.08-9.18-32.91-9.18A55.84,55.84,0,0,0,475.57,223q-13.71,10.09-22.51,27.83c-.51-1.48-1.06-2.92-1.65-4.33q-7.11-17.06-20.66-25.91T398,211.74a52.26,52.26,0,0,0-32.79,10.93q-10.7,8.22-18.15,22v-29.2H289.72v227H347V293.51q0-13.77,6.78-21.21t19.46-7.43q13.77,0,21,8.2t7.21,23.5V442.41h57.07V295.7q0-14.86,7.1-22.85t20.23-8q13.11,0,20.22,8.2t7.11,23.5v73.69q0,36.94,15.85,56.19t46.24,19.24q18.15,0,30.51-11.26A62,62,0,0,0,621,412.22v30.19h56.41v-227Z"/><path class="cls-1" d="M1183.88,246.94A63.67,63.67,0,0,0,1156,220.81q-18.27-9.08-43.84-9.07-30,0-50.07,13.44t-26.89,37.28l44.38,18.15a34.11,34.11,0,0,1,13.23-12.68,38.39,38.39,0,0,1,18.69-4.59q14,0,21.65,6.67t7.65,18.91v18.15h-35.42q-38.7,0-58.38,18.14t-19.68,52.92q0,33.45,15.64,50.5t46.68,17.06a70.53,70.53,0,0,0,27.22-5,46.85,46.85,0,0,0,19.68-14.87,38.35,38.35,0,0,0,4.26-7.08v23.7h52.69V288Q1193.5,264,1183.88,246.94Zm-52,146.27q-9,5.91-26.68,5.91-12.68,0-19-5.25t-6.34-15.74q0-13.33,6.89-20t20.22-6.67h33.89V375.5Q1140.81,387.31,1131.85,393.21Z"/><path class="cls-1" d="M1562.26,264.21,1477,389.93h91.17v52.48h-155V392.78L1501,267.93H1416.2V215.45h146.06Z"/><path class="cls-1" d="M1758.28,351V311q0-31.49-9.73-53.68t-28.32-33.78Q1701.65,212,1675.41,212q-26.9,0-45.92,10.6a70.23,70.23,0,0,0-29.08,30.72q-10,20.11-10.05,48.54V360q0,26.89,10.49,46.13a70.53,70.53,0,0,0,30.07,29.41q19.56,10.17,47.33,10.17,31.27,0,51.06-13.89t26.34-41.43l-47.88-18.15q-3.72,11.37-11.48,17.28t-19.57,5.9q-15.53,0-24-8.86t-8.53-25.47V351Zm-105.83-78.38q8.31-9.51,23-9.51,12.9,0,21.1,8.42t8.2,22.85v16.17h-60.57V299.41Q1644.14,282.15,1652.45,272.63Z"/><path class="cls-1" d="M1329.73,387.09H1304q-7.65,0-11.91-4.37t-4.27-12.25v-246H1231V382.28q0,28.65,14.87,44.39t41.55,15.74h99.37v-227h-57.06Z"/><rect class="cls-1" x="1329.73" y="124.5" width="57.07" height="56.63"/></g><polygon class="cls-1" points="1711.91 124.5 1678.76 124.5 1678.76 133.14 1690.91 133.14 1690.91 168.26 1699.76 168.26 1699.76 133.14 1711.91 133.14 1711.91 124.5"/><polygon class="cls-1" points="1749.85 124.5 1737.63 149.22 1725.4 124.5 1716.97 124.5 1716.97 168.26 1725.33 168.26 1725.33 140.24 1736.22 162.36 1739.1 162.36 1749.99 139.76 1749.99 168.26 1758.28 168.26 1758.28 124.5 1749.85 124.5"/><g id="Wordmark-2" data-name="Wordmark"><path d="M804.09,1743.56v-50.29H775.67v-66H718.6v66H697.39v50.29H718.6v117.63q0,29.73,14.21,44.93t44.39,15.2h26.89v-55.54H789q-6.35,0-9.84-4.15t-3.49-12.25V1743.56Z"/><path d="M940.64,1693.27v152.61q0,12.91-6.45,19.9t-18.92,6.78q-12.67.21-19.24-6.45T889.47,1847V1693.27H832.84v154.8q0,36.95,15.86,56.19t46.24,19.24q18.15,0,30.5-11.26a62.16,62.16,0,0,0,15.2-22.21v30.19h56.41v-227Z"/><path d="M621,1693v152.61q0,12.9-6.45,19.9t-18.91,6.78q-12.69.21-19.24-6.45t-6.56-19.13v-39.93h0v-23.25h0v-16c0-16.47-2.08-30.58-6.89-42.31s-11.44-20.66-20.55-26.79-20.08-9.18-32.91-9.18a55.84,55.84,0,0,0-33.89,11.26q-13.71,10.1-22.51,27.83c-.51-1.47-1.06-2.92-1.65-4.32q-7.11-17.05-20.66-25.91t-32.8-8.86a52.32,52.32,0,0,0-32.79,10.93q-10.7,8.22-18.15,22V1693H289.72v227H347v-148.9q0-13.77,6.78-21.2t19.46-7.44q13.77,0,21,8.2t7.21,23.51V1920h57.07V1773.28q0-14.87,7.1-22.85t20.23-8q13.11,0,20.22,8.2t7.11,23.51v73.68q0,36.95,15.85,56.19t46.24,19.24q18.15,0,30.51-11.26A62,62,0,0,0,621,1889.8V1920h56.41V1693Z"/><path d="M1183.88,1724.52a63.67,63.67,0,0,0-27.87-26.13q-18.27-9.06-43.84-9.07-30,0-50.07,13.45t-26.89,37.28l44.38,18.14a34.11,34.11,0,0,1,13.23-12.68,38.39,38.39,0,0,1,18.69-4.59q14,0,21.65,6.67t7.65,18.91v18.15h-35.42q-38.7,0-58.38,18.15t-19.68,52.91q0,33.45,15.64,50.51t46.68,17a70.53,70.53,0,0,0,27.22-5,46.85,46.85,0,0,0,19.68-14.87,38,38,0,0,0,4.26-7.08V1920h52.69V1765.63Q1193.5,1741.58,1183.88,1724.52Zm-52,146.28q-9,5.9-26.68,5.9-12.68,0-19-5.25t-6.34-15.74q0-13.34,6.89-20t20.22-6.66h33.89v24Q1140.81,1864.9,1131.85,1870.8Z"/><path d="M1562.26,1741.8,1477,1867.52h91.17V1920h-155v-49.63l87.9-124.85H1416.2V1693h146.06Z"/><path d="M1758.28,1828.6v-40q0-31.48-9.73-53.68t-28.32-33.78q-18.59-11.6-44.82-11.59-26.9,0-45.92,10.6a70.28,70.28,0,0,0-29.08,30.72q-10,20.13-10.05,48.54v58.16q0,26.89,10.49,46.14a70.45,70.45,0,0,0,30.07,29.4q19.56,10.17,47.33,10.17,31.27,0,51.06-13.88t26.34-41.44l-47.88-18.14q-3.72,11.37-11.48,17.27t-19.57,5.9q-15.53,0-24-8.85t-8.53-25.47V1828.6Zm-105.83-78.39q8.31-9.51,23-9.51,12.9,0,21.1,8.42t8.2,22.85v16.18h-60.57V1777Q1644.14,1759.72,1652.45,1750.21Z"/><path d="M1329.73,1864.67H1304q-7.65,0-11.91-4.37c-2.85-2.91-4.27-7-4.27-12.24v-246H1231v257.78q0,28.65,14.87,44.39t41.55,15.74h99.37V1693h-57.06Z"/><rect x="1329.73" y="1602.08" width="57.07" height="56.63"/></g><polygon points="1711.91 1602.08 1678.76 1602.08 1678.76 1610.72 1690.91 1610.72 1690.91 1645.85 1699.76 1645.85 1699.76 1610.72 1711.91 1610.72 1711.91 1602.08"/><polygon points="1749.85 1602.08 1737.63 1626.81 1725.4 1602.08 1716.97 1602.08 1716.97 1645.85 1725.33 1645.85 1725.33 1617.82 1736.22 1639.94 1739.1 1639.94 1749.99 1617.35 1749.99 1645.85 1758.28 1645.85 1758.28 1602.08 1749.85 1602.08"/><g id="Wordmark-3" data-name="Wordmark"><path class="cls-3" d="M804.09,758.5V708.21H775.67v-66H718.6v66H697.39V758.5H718.6V876.13q0,29.75,14.21,44.93t44.39,15.2h26.89V880.72H789q-6.35,0-9.84-4.15t-3.49-12.24V758.5Z"/><path class="cls-3" d="M940.64,708.21V860.83q0,12.9-6.45,19.89t-18.92,6.78q-12.67.22-19.24-6.45t-6.56-19.13V708.21H832.84V863q0,37,15.86,56.2t46.24,19.24q18.15,0,30.5-11.26A62.12,62.12,0,0,0,940.64,905v30.2h56.41v-227Z"/><path class="cls-4" d="M621,708V860.6q0,12.9-6.45,19.89t-18.91,6.78q-12.69.22-19.24-6.45t-6.56-19.13V821.77h0V798.51h0v-16c0-16.47-2.08-30.57-6.89-42.31s-11.44-20.66-20.55-26.78-20.08-9.18-32.91-9.18a55.84,55.84,0,0,0-33.89,11.26q-13.71,10.1-22.51,27.83c-.51-1.48-1.06-2.92-1.65-4.33Q444.3,722,430.75,713.12T398,704.27a52.26,52.26,0,0,0-32.79,10.93,68.13,68.13,0,0,0-18.15,22V708H289.72v227H347V786q0-13.77,6.78-21.21t19.46-7.43q13.77,0,21,8.2t7.21,23.5V934.94h57.07V788.22q0-14.87,7.1-22.84t20.23-8q13.11,0,20.22,8.2t7.11,23.5v73.68q0,37,15.85,56.2t46.24,19.24q18.15,0,30.51-11.26A62,62,0,0,0,621,904.74v30.2h56.41V708Z"/><path class="cls-3" d="M1183.88,739.47A63.67,63.67,0,0,0,1156,713.34q-18.27-9.08-43.84-9.07-30,0-50.07,13.44T1035.21,755l44.38,18.15a34.11,34.11,0,0,1,13.23-12.68,38.39,38.39,0,0,1,18.69-4.59q14,0,21.65,6.66t7.65,18.92v18.14h-35.42q-38.7,0-58.38,18.15t-19.68,52.91q0,33.47,15.64,50.51t46.68,17.06a70.53,70.53,0,0,0,27.22-5,46.85,46.85,0,0,0,19.68-14.87,38.68,38.68,0,0,0,4.26-7.08v23.7h52.69V780.57Q1193.5,756.52,1183.88,739.47Zm-52,146.27q-9,5.91-26.68,5.9-12.68,0-19-5.24t-6.34-15.75q0-13.32,6.89-20t20.22-6.67h33.89v24Q1140.81,879.84,1131.85,885.74Z"/><path class="cls-3" d="M1562.26,756.74,1477,882.46h91.17v52.48h-155V885.3L1501,760.46H1416.2V708h146.06Z"/><path class="cls-3" d="M1758.28,843.54v-40q0-31.49-9.73-53.68t-28.32-33.78q-18.59-11.58-44.82-11.59-26.9,0-45.92,10.61a70.23,70.23,0,0,0-29.08,30.72q-10,20.12-10.05,48.54v58.16q0,26.9,10.49,46.13a70.53,70.53,0,0,0,30.07,29.41q19.56,10.17,47.33,10.17,31.27,0,51.06-13.89t26.34-41.43l-47.88-18.15q-3.72,11.37-11.48,17.27t-19.57,5.91q-15.53,0-24-8.86t-8.53-25.47V843.54Zm-105.83-78.38q8.31-9.51,23-9.51,12.9,0,21.1,8.41t8.2,22.85v16.18h-60.57V791.94Q1644.14,774.68,1652.45,765.16Z"/><path class="cls-3" d="M1329.73,879.62H1304q-7.65,0-11.91-4.37T1287.85,863V617H1231V874.81q0,28.65,14.87,44.38t41.55,15.75h99.37V708h-57.06Z"/><rect class="cls-3" x="1329.73" y="617.03" width="57.07" height="56.63"/></g><polygon points="1711.91 617.02 1678.76 617.02 1678.76 625.66 1690.91 625.66 1690.91 660.79 1699.76 660.79 1699.76 625.66 1711.91 625.66 1711.91 617.02"/><polygon points="1749.85 617.02 1737.63 641.75 1725.4 617.02 1716.97 617.02 1716.97 660.79 1725.33 660.79 1725.33 632.77 1736.22 654.89 1739.1 654.89 1749.99 632.29 1749.99 660.79 1758.28 660.79 1758.28 617.02 1749.85 617.02"/><g id="Wordmark-4" data-name="Wordmark"><path class="cls-5" d="M804.09,1251v-50.29H775.67v-66H718.6v66H697.39V1251H718.6v117.63q0,29.74,14.21,44.93t44.39,15.2h26.89v-55.54H789q-6.35,0-9.84-4.15t-3.49-12.25V1251Z"/><path class="cls-5" d="M940.64,1200.74v152.62q0,12.9-6.45,19.89T915.27,1380q-12.67.23-19.24-6.45t-6.56-19.13V1200.74H832.84v154.8q0,37,15.86,56.19T894.94,1431q18.15,0,30.5-11.26a62.07,62.07,0,0,0,15.2-22.21v30.19h56.41v-227Z"/><path class="cls-6" d="M621,1200.51v152.61q0,12.92-6.45,19.9t-18.91,6.78q-12.69.23-19.24-6.45t-6.56-19.13V1314.3h0V1291h0v-16c0-16.47-2.08-30.58-6.89-42.31s-11.44-20.66-20.55-26.78-20.08-9.19-32.91-9.19a55.91,55.91,0,0,0-33.89,11.26q-13.71,10.1-22.51,27.84c-.51-1.48-1.06-2.93-1.65-4.33q-7.11-17.05-20.66-25.91t-32.8-8.86a52.32,52.32,0,0,0-32.79,10.93q-10.7,8.22-18.15,22v-29.2H289.72v227H347V1278.57q0-13.78,6.78-21.21t19.46-7.44q13.77,0,21,8.2t7.21,23.51v145.83h57.07V1280.75q0-14.87,7.1-22.85t20.23-8q13.11,0,20.22,8.2t7.11,23.51v73.68q0,37,15.85,56.19t46.24,19.24q18.15,0,30.51-11.26A61.93,61.93,0,0,0,621,1397.27v30.19h56.41v-227Z"/><path class="cls-5" d="M1183.88,1232a63.7,63.7,0,0,0-27.87-26.12q-18.27-9.07-43.84-9.08-30,0-50.07,13.45t-26.89,37.28l44.38,18.15a34.21,34.21,0,0,1,13.23-12.69,38.39,38.39,0,0,1,18.69-4.59q14,0,21.65,6.67t7.65,18.91v18.15h-35.42q-38.7,0-58.38,18.15t-19.68,52.91q0,33.45,15.64,50.51t46.68,17a70.53,70.53,0,0,0,27.22-5,46.93,46.93,0,0,0,19.68-14.87,38.43,38.43,0,0,0,4.26-7.09v23.7h52.69V1273.1Q1193.5,1249.05,1183.88,1232Zm-52,146.28q-9,5.89-26.68,5.9-12.68,0-19-5.25t-6.34-15.74q0-13.34,6.89-20t20.22-6.67h33.89v24Q1140.81,1372.37,1131.85,1378.27Z"/><path class="cls-5" d="M1562.26,1249.27,1477,1375h91.17v52.47h-155v-49.63L1501,1253H1416.2v-52.47h146.06Z"/><path class="cls-5" d="M1758.28,1336.07v-40q0-31.49-9.73-53.68t-28.32-33.78q-18.59-11.58-44.82-11.59-26.9,0-45.92,10.61a70.23,70.23,0,0,0-29.08,30.72q-10,20.12-10.05,48.53V1345q0,26.9,10.49,46.14a70.53,70.53,0,0,0,30.07,29.41q19.56,10.15,47.33,10.16,31.27,0,51.06-13.88t26.34-41.43l-47.88-18.15q-3.72,11.37-11.48,17.27t-19.57,5.91q-15.53,0-24-8.86t-8.53-25.47v-10.06Zm-105.83-78.38q8.31-9.51,23-9.52,12.9,0,21.1,8.42t8.2,22.85v16.18h-60.57v-11.15Q1644.14,1267.21,1652.45,1257.69Z"/><path class="cls-5" d="M1329.73,1372.15H1304q-7.65,0-11.91-4.38t-4.27-12.24v-246H1231v257.79q0,28.64,14.87,44.38t41.55,15.74h99.37v-227h-57.06Z"/><rect class="cls-5" x="1329.73" y="1109.55" width="57.07" height="56.63"/></g><polygon class="cls-7" points="1711.91 1109.55 1678.76 1109.55 1678.76 1118.19 1690.91 1118.19 1690.91 1153.32 1699.76 1153.32 1699.76 1118.19 1711.91 1118.19 1711.91 1109.55"/><polygon class="cls-7" points="1749.85 1109.55 1737.63 1134.28 1725.4 1109.55 1716.97 1109.55 1716.97 1153.32 1725.33 1153.32 1725.33 1125.3 1736.22 1147.42 1739.1 1147.42 1749.99 1124.82 1749.99 1153.32 1758.28 1153.32 1758.28 1109.55 1749.85 1109.55"/></svg>